<?xml version="1.0" encoding="utf-8"?>
<!-- Generator: Adobe Illustrator 15.0.0, SVG Export Plug-In . SVG Version: 6.00 Build 0)  -->
<!DOCTYPE svg PUBLIC "-//W3C//DTD SVG 1.1//EN" "http://www.w3.org/Graphics/SVG/1.1/DTD/svg11.dtd">
<svg version="1.1" id="&#x56FE;&#x5C42;_1" xmlns="http://www.w3.org/2000/svg" xmlns:xlink="http://www.w3.org/1999/xlink" x="0px" y="0px" width="40px" height="40px" viewBox="0 0 40 40" enable-background="new 0 0 40 40" xml:space="preserve">
<path d="M20,37.1c-9.443,0-17.1-7.655-17.1-17.1S10.557,2.9,20,2.9c9.444,0,17.1,7.656,17.1,17.1C37.1,29.444,29.444,37.1,20,37.1
	L20,37.1z M22.615,11.669c0-1.31-1.344-2.37-2.654-2.37c-1.31,0-2.615,1.061-2.615,2.37l0.689,9.883
	c0,1.309,0.602,2.372,1.909,2.372c1.31,0,1.982-1.063,1.982-2.372L22.615,11.669z M20.041,25.205c-1.479,0-2.677,1.202-2.677,2.683
	c0,1.479,1.197,2.678,2.677,2.678c1.48,0,2.682-1.198,2.682-2.678C22.723,26.407,21.521,25.205,20.041,25.205L20.041,25.205z
	 M20.041,25.205"/>
</svg>
