<?xml version="1.0" encoding="utf-8"?>
<!-- Generator: Adobe Illustrator 15.0.0, SVG Export Plug-In . SVG Version: 6.00 Build 0)  -->
<!DOCTYPE svg PUBLIC "-//W3C//DTD SVG 1.1//EN" "http://www.w3.org/Graphics/SVG/1.1/DTD/svg11.dtd">
<svg version="1.1" id="图层_1" xmlns="http://www.w3.org/2000/svg" xmlns:xlink="http://www.w3.org/1999/xlink" x="0px" y="0px"
	 width="40px" height="40px" viewBox="0 0 40 40" enable-background="new 0 0 40 40" xml:space="preserve">
<path d="M35.665,0.187H4.334c-2.383,0-4.314,1.978-4.314,4.418v21.373c0,2.439,1.931,4.418,4.314,4.418h14.101v6.213H6.356
	c-0.864,0-1.564,0.717-1.564,1.602s0.7,1.602,1.564,1.602h27.285c0.863,0,1.563-0.717,1.563-1.602s-0.7-1.602-1.563-1.602H21.563
	v-6.213h14.102c2.383,0,4.313-1.979,4.313-4.418V4.605C39.979,2.165,38.048,0.187,35.665,0.187L35.665,0.187z M36.851,25.867
	c0,0.732-0.579,1.324-1.294,1.324H4.442c-0.715,0-1.294-0.592-1.294-1.324V4.716c0-0.732,0.58-1.326,1.294-1.326h31.114
	c0.715,0,1.294,0.594,1.294,1.326V25.867z M36.851,25.867"/>
</svg>
