<?xml version="1.0" encoding="utf-8"?>
<!-- Generator: Adobe Illustrator 15.0.0, SVG Export Plug-In . SVG Version: 6.00 Build 0)  -->
<!DOCTYPE svg PUBLIC "-//W3C//DTD SVG 1.1//EN" "http://www.w3.org/Graphics/SVG/1.1/DTD/svg11.dtd">
<svg version="1.1" id="图层_1" xmlns="http://www.w3.org/2000/svg" xmlns:xlink="http://www.w3.org/1999/xlink" x="0px" y="0px"
	 width="40px" height="40px" viewBox="0 0 40 40" enable-background="new 0 0 40 40" xml:space="preserve">
<g>
	<g>
		<path d="M35.722,5.565h-3.176V1.536c0-0.725-0.587-1.37-1.339-1.37H6.955C4.697,0.247,2.941,2.02,2.941,4.275v33.44
			c0,1.21,1.003,2.257,2.174,2.257h29.687c1.254,0,2.258-0.967,2.258-2.257V6.855C36.977,6.13,36.392,5.565,35.722,5.565z
			 M6.955,2.907h22.913v2.659H6.955c-0.753,0-1.338-0.564-1.338-1.29C5.617,3.47,6.202,2.907,6.955,2.907z M33.465,37.23H6.453
			c-0.501,0-0.92-0.402-0.92-0.884V7.983c0.419,0.161,0.836,0.242,1.339,0.242H34.3v28.122h0.084
			C34.384,36.828,33.967,37.23,33.465,37.23z M28.53,13.381h-7.108c0-0.805-0.586-1.37-1.338-1.37c-0.019,0-0.035,0.005-0.054,0.006
			c-0.011,0-0.02-0.006-0.03-0.006c-0.752,0-1.337,0.645-1.337,1.37h-7.109c-1.254,0-2.257,1.048-2.257,2.256v1.611
			c0,0.807,0.585,1.371,1.338,1.371s1.338-0.646,1.338-1.371v-0.241c0-0.483,0.418-0.886,0.92-0.886h14.132
			c0.503,0,0.919,0.403,0.919,0.886v0.241c0,0.807,0.587,1.371,1.339,1.371c0.019,0,0.035-0.005,0.054-0.006
			c0.011,0,0.02,0.006,0.03,0.006c0.751,0,1.338-0.646,1.338-1.371v-1.611C30.704,14.348,29.785,13.381,28.53,13.381z
			 M28.698,26.598v-3.465h0.584c0.753,0,1.339-0.564,1.339-1.372c0-0.725-0.586-1.289-1.339-1.289h-0.584
			c0-0.725-0.587-1.369-1.34-1.369s-1.336,0.563-1.336,1.369H13.896c0-0.725-0.586-1.369-1.338-1.369
			c-0.752,0-1.337,0.563-1.337,1.369h-0.502c-0.753,0-1.339,0.564-1.339,1.289c0,0.726,0.585,1.372,1.339,1.372h0.584v3.465
			c0,0.563,0.418,1.127,0.92,1.288l3.513,1.128L10.3,30.787c-0.669,0.242-1.087,0.966-0.836,1.69
			c0.25,0.726,1.003,1.048,1.672,0.888l8.864-2.9l8.864,2.818c0.67,0.242,1.422-0.16,1.674-0.887
			c0.25-0.644-0.168-1.448-0.836-1.609l-5.437-1.773l3.429-1.128C28.28,27.725,28.614,27.161,28.698,26.598z M26.022,25.629
			L20,27.564l-6.104-1.936v-2.496h12.126V25.629z"/>
	</g>
</g>
</svg>
