<svg xmlns="http://www.w3.org/2000/svg" xmlns:xlink="http://www.w3.org/1999/xlink" version="1.1" width="17.500051498413086" height="15.5" viewBox="0 0 17.500051498413086 15.5"><g><path d="M0.367224,15.1185Q0.000680923,14.7409,0.0000972748,14.2086L0.000152588,8.18105Q-0.00145721,8.10461,0.013813,8.03065Q0.0288544,7.95648,0.0600491,7.88774L3.13283,0.769398Q3.46529,0.00053817,4.28695,0L13.2126,0Q14.0341,0.000537395,14.3666,0.769522L17.44,7.88772Q17.4711,7.95644,17.486,8.0298Q17.5015,8.10461,17.4999,8.17578L17.4999,14.2086Q17.4993,14.7412,17.1325,15.1188Q16.7627,15.4994,16.238,15.5L1.26095,15.5Q0.736713,15.4991,0.367224,15.1185ZM13.1796,1.33333L15.8421,7.5L12.5472,7.5Q12.0802,7.49965,11.7256,7.81088Q11.3735,8.11984,11.3009,8.58868Q11.1505,9.56655,10.4278,10.201Q9.70743,10.8333,8.74969,10.8333Q7.79195,10.8333,7.07159,10.201Q6.3488,9.56654,6.19841,8.58894Q6.12573,8.11983,5.77368,7.81088Q5.41904,7.49965,4.95185,7.5L1.65721,7.5L4.31979,1.33333L13.1796,1.33333ZM12.5887,8.83333L16.1904,8.83333L16.1904,14.1667L1.30901,14.1667L1.30901,8.83333L4.9107,8.83333Q5.14334,10.2636,6.21918,11.2092Q7.31181,12.1695,8.74969,12.1695Q10.1876,12.1695,11.2802,11.2092Q12.356,10.2637,12.5887,8.83333Z" fill-rule="evenodd" /></g></svg>