<?xml version="1.0" encoding="utf-8"?>
<!-- Generator: Adobe Illustrator 15.0.0, SVG Export Plug-In . SVG Version: 6.00 Build 0)  -->
<!DOCTYPE svg PUBLIC "-//W3C//DTD SVG 1.1//EN" "http://www.w3.org/Graphics/SVG/1.1/DTD/svg11.dtd">
<svg version="1.1" id="图层_1" xmlns="http://www.w3.org/2000/svg" xmlns:xlink="http://www.w3.org/1999/xlink" x="0px" y="0px"
	 width="40px" height="40px" viewBox="0 0 40 40" enable-background="new 0 0 40 40" xml:space="preserve">
<path d="M39.488,16.214L22.593,2.875c-1.454-1.152-3.733-1.152-5.188,0L0.517,16.214c-0.581,0.458-0.673,1.294-0.222,1.867
	c0.452,0.573,1.275,0.673,1.856,0.223l0.524-0.43v16.123c0,2.283,2.414,3.992,4.527,3.992h26.655c2.094,0,3.47-1.602,3.47-3.992
	V17.931l0.487,0.373c0.243,0.193,0.542,0.286,0.837,0.286c0.394,0,0.789-0.172,1.054-0.509
	C40.162,17.508,40.069,16.672,39.488,16.214L39.488,16.214z M18.667,35.327v-7.385c0-0.365,0.665-0.551,1.332-0.551
	c0.667,0,1.333,0.186,1.333,0.551v7.378L18.667,35.327z M34.666,33.997c0,0.881-0.242,1.33-0.801,1.33h-9.839
	c0-0.021-0.028-0.035-0.028-0.058v-7.327c0-1.545-1.247-3.213-3.999-3.213c-2.751,0-3.998,1.668-3.998,3.213v7.327
	c0,0.022,0.037,0.036,0.037,0.058H7.209c-0.838,0-1.862-0.723-1.862-1.33V15.764L19.04,4.964c0.493-0.386,1.384-0.386,1.871,0
	l13.75,10.863v18.17H34.666z"/>
</svg>
