<?xml version="1.0" encoding="utf-8"?>
<!-- Generator: Adobe Illustrator 15.0.0, SVG Export Plug-In . SVG Version: 6.00 Build 0)  -->
<!DOCTYPE svg PUBLIC "-//W3C//DTD SVG 1.1//EN" "http://www.w3.org/Graphics/SVG/1.1/DTD/svg11.dtd">
<svg version="1.1" id="图层_1" xmlns="http://www.w3.org/2000/svg" xmlns:xlink="http://www.w3.org/1999/xlink" x="0px" y="0px"
	 width="40px" height="40px" viewBox="0 0 40 40" enable-background="new 0 0 40 40" xml:space="preserve">
<g>
	<g>
		<path d="M34.962,33.54c-0.578-0.749-1.604-0.993-2.456-0.582c-1.293,0.582-3.98-0.277-3.991-0.277
			c-0.229-0.028-0.448-0.073-0.668-0.137c-0.598-0.187-1.195-0.381-1.802-0.581c-0.139-0.048-0.139-0.251,0-0.301
			c1.165-0.381,2.309-0.737,3.418-1.06c0.515-0.145,1.038-0.272,1.561-0.359c0.818-0.139,1.41-0.161,2.003,0.101
			c0.896,0.387,1.774,1.532,2.337,0.027c0.684-1.815-2.438-2.441-2.459-3.763c-0.022-1.327,0.014-3.627-2.031-2.963
			c-1.686,0.551-0.569,1.157-1.451,2.156c-0.284,0.322-0.64,0.581-1.026,0.765c-1.836,0.896-3.861,1.803-5.967,2.665
			c-1.213,0.489-2.567,0.489-3.78,0c-2.094-0.862-4.125-1.764-5.966-2.665c-0.384-0.184-0.74-0.439-1.023-0.765
			c-0.885-0.999,0.236-1.605-1.452-2.156c-2.053-0.664-2.008,1.636-2.03,2.963c-0.022,1.323-3.138,1.947-2.459,3.763
			c0.562,1.503,1.438,0.359,2.339-0.027c0.592-0.262,1.185-0.239,2-0.101c0.528,0.09,1.048,0.212,1.56,0.359
			c1.146,0.334,2.284,0.687,3.418,1.06c0.142,0.056,0.142,0.256,0,0.301c-0.609,0.2-1.207,0.397-1.799,0.581
			c-0.214,0.063-0.439,0.108-0.667,0.137c-0.014,0-2.698,0.859-3.992,0.277c-0.851-0.408-1.872-0.167-2.448,0.582
			c-1.869,2.489,1.944,2,2.59,3.26c0.634,1.216-0.125,3.204,2.089,3.068c1.563-0.095,0.317-2.081,3.04-3.305
			c0.031-0.017,0.587-0.334,0.849-0.462c1.268-0.573,2.598-1.151,3.96-1.699c1.213-0.498,2.57-0.498,3.781,0
			c1.332,0.536,2.653,1.104,3.963,1.699c0.287,0.15,0.567,0.303,0.849,0.462c2.726,1.224,1.479,3.21,3.04,3.305
			c2.214,0.133,1.452-1.853,2.086-3.068C33.016,35.54,36.831,36.035,34.962,33.54z M10.471,21.126
			c0.921,0.573,1.972,1.051,3.146,1.435c0.331,0.106,0.554,0.412,0.554,0.76c0,0.734,0.25,1.344,0.743,1.844
			c0.5,0.495,1.115,0.773,1.847,0.824c0.106,0.008,0.217,0.014,0.317,0.014c0.5,0,0.907-0.098,1.204-0.287
			c0.053-0.033,0.111-0.05,0.173-0.05c0.064,0,0.125,0.022,0.178,0.05c0.523,0.337,1.107,0.501,1.738,0.501
			c0.567,0,1.097-0.139,1.58-0.434c0.069-0.042,0.147-0.064,0.228-0.062c0.072,0,0.143,0.017,0.209,0.05
			c0.287,0.147,0.656,0.229,1.1,0.229c0.798,0.006,1.568-0.301,2.141-0.856c0.501-0.484,0.746-1.099,0.746-1.825
			c0-0.256,0.167-0.473,0.409-0.539c2.634-0.746,4.676-1.937,6.149-3.583c1.502-1.646,2.242-3.597,2.242-5.847
			c0-0.5-0.048-1.017-0.156-1.574c-0.525-3.346-2.069-6.108-4.631-8.281C27.688,1.164,24.404,0,20.526,0
			c-3.875,0-7.16,1.153-9.861,3.449c-2.57,2.204-4.1,4.979-4.595,8.324c-0.509,2.627,0.237,5.342,2.017,7.345
			C8.757,19.885,9.544,20.55,10.471,21.126z M23.767,9.791c0.72-0.789,1.741-1.232,2.81-1.218c1.126,0,2.072,0.406,2.848,1.218
			c0.773,0.818,1.16,1.798,1.16,2.954s-0.384,2.143-1.16,2.957c-0.775,0.813-1.724,1.218-2.848,1.218c-1.1,0-2.033-0.406-2.81-1.218
			c-0.765-0.792-1.183-1.855-1.159-2.957C22.607,11.589,22.99,10.606,23.767,9.791z M19.603,18.008
			c0.381-0.49,0.749-0.737,1.116-0.737s0.72,0.27,1.043,0.82c0.322,0.545,0.492,1.057,0.492,1.55c0,0.756-0.496,1.129-1.491,1.129
			c-0.654,0-1.138-0.17-1.452-0.503c-0.189-0.214-0.287-0.492-0.275-0.782C19.035,18.989,19.225,18.503,19.603,18.008z
			 M11.687,9.791c0.726-0.787,1.755-1.231,2.826-1.218c1.101,0,2.044,0.406,2.829,1.218c0.784,0.818,1.182,1.798,1.182,2.954
			c0,1.151-0.395,2.14-1.182,2.957c-0.785,0.813-1.725,1.218-2.829,1.218c-1.096,0-2.045-0.406-2.826-1.218
			c-0.776-0.787-1.202-1.853-1.182-2.957C10.504,11.589,10.899,10.606,11.687,9.791z"/>
	</g>
</g>
</svg>
