<svg xmlns="http://www.w3.org/2000/svg" xmlns:xlink="http://www.w3.org/1999/xlink"  version="1.1" width="16.921875" height="18" viewBox="0 0 16.921875 18"><g><path d="M8.45312,0C7.90084,0,7.45312,0.447715,7.45312,1L7.45312,8L1,8C0.447715,8,0,8.44772,0,9C0,9.55229,0.447715,10,1,10L7.45312,10L7.45312,17C7.45312,17.5523,7.90084,18,8.45312,18C9.00541,18,9.45312,17.5523,9.45312,17L9.45312,10L15.9219,10C16.4742,10,16.9219,9.55229,16.9219,9C16.9219,8.44772,16.4742,8,15.9219,8L9.45312,8L9.45312,1C9.45312,0.447715,9.00541,0,8.45312,0Z" /></g></svg>