<svg xmlns="http://www.w3.org/2000/svg" xmlns:xlink="http://www.w3.org/1999/xlink"  version="1.1" width="17.592592239379883" height="17.592592239379883" viewBox="0 0 17.592592239379883 17.592592239379883"><g><path d="M2.27009,6.21841L2.27009,7.32041L1.10077,7.32041L1.10077,15.5529C1.10077,16.0668,1.50659,16.4822,2.00766,16.4905L2.02287,16.4906L15.5697,16.4906C16.0727,16.4906,16.4836,16.0803,16.4917,15.5684L16.4918,15.5529L16.4918,7.32041L15.2764,7.32041L15.2764,6.21841L17.0422,6.21841C17.3432,6.21841,17.5877,6.4602,17.5926,6.7603L17.5926,15.5529C17.5926,16.6669,16.7061,17.5743,15.6032,17.5923L15.5697,17.5926L2.02287,17.5926C0.915621,17.5926,0.0181036,16.6964,0.000275076,15.5866L0,15.5529L0,6.76941C0,6.46813,0.24152,6.22335,0.541282,6.21841L2.27009,6.21841ZM7.88227,0C8.18624,0,8.43265,0.24669,8.43265,0.550998C8.43265,0.855307,8.18624,1.102,7.88227,1.102L7.64639,1.102L7.64639,6.21841L10.0052,6.21841L10.0052,1.102L9.76929,1.102C9.46533,1.102,9.21891,0.855307,9.21891,0.550998C9.21891,0.24669,9.46533,0,9.76929,0L14.9586,0C15.2626,0,15.509,0.24669,15.509,0.550998C15.509,0.855307,15.2626,1.102,14.9586,1.102L14.7227,1.102L14.7227,12.9485C14.7227,14.2526,13.6667,15.3099,12.364,15.3099C11.0612,15.3099,10.0052,14.2526,10.0052,12.9485L10.0052,7.32041L7.64639,7.32041L7.64639,12.9485C7.64639,14.2526,6.59032,15.3099,5.28761,15.3099C3.98489,15.3099,2.92882,14.2526,2.92882,12.9485L2.92882,1.102L2.69294,1.102C2.38898,1.102,2.14256,0.855307,2.14256,0.550998C2.14256,0.24669,2.38898,0,2.69294,0L7.88227,0ZM6.54562,9.36697L4.02959,9.36697L4.02959,12.9485C4.02959,13.6371,4.58162,14.1966,5.26681,14.2077L5.28761,14.2079C5.97545,14.2079,6.53434,13.6552,6.54545,12.9693L6.54562,12.9485L6.54562,9.36697ZM13.622,4.66381L11.1059,4.66381L11.1059,12.9485C11.1059,13.6371,11.658,14.1966,12.3432,14.2077L12.364,14.2079C13.0518,14.2079,13.6107,13.6552,13.6218,12.9693L13.622,12.9485L13.622,4.66381ZM6.54562,1.102L4.02959,1.102L4.02959,8.26498L6.54562,8.26498L6.54562,1.102ZM13.622,1.102L11.1059,1.102L11.1059,3.56181L13.622,3.56181L13.622,1.102Z" /></g></svg>