<svg xmlns="http://www.w3.org/2000/svg" xmlns:xlink="http://www.w3.org/1999/xlink"  version="1.1" width="16.000009536743164" height="16" viewBox="0 0 16.000009536743164 16"><g><path d="M14,16L2,16C0.89543,16,0,15.1046,0,14L0,5.33333C-0.000444437,5.21778,0.0315556,5.10444,0.0933333,5.00667L2.37333,1.00667C2.72913,0.384901,3.3903,0.00091336,4.10667,0L11.8933,0C12.6097,0.000913387,13.2709,0.384901,13.6267,1.00667L15.9067,5.00667C15.9684,5.10444,16.0004,5.21778,16,5.33333L16,14C16,15.1046,15.1046,16,14,16ZM1.33333,6L1.33333,14C1.33333,14.3682,1.63181,14.6667,2,14.6667L14,14.6667C14.3682,14.6667,14.6667,14.3682,14.6667,14L14.6667,6L1.33333,6ZM1.81333,4.66667L14.1867,4.66667L12.4733,1.66667C12.3538,1.45958,12.1325,1.33238,11.8933,1.33333L4.10667,1.33333C3.86754,1.33238,3.64623,1.45958,3.52667,1.66667L1.81333,4.66667ZM11.3333,9.66667L4.66667,9.66667C4.29848,9.66667,4,9.36819,4,9C4,8.63181,4.29848,8.33333,4.66667,8.33333L11.3333,8.33333C11.7015,8.33333,12,8.63181,12,9C12,9.36819,11.7015,9.66667,11.3333,9.66667Z" /></g></svg>