<?xml version="1.0" encoding="utf-8"?>
<!-- Generator: Adobe Illustrator 15.0.0, SVG Export Plug-In . SVG Version: 6.00 Build 0)  -->
<!DOCTYPE svg PUBLIC "-//W3C//DTD SVG 1.1//EN" "http://www.w3.org/Graphics/SVG/1.1/DTD/svg11.dtd">
<svg version="1.1" id="图层_1" xmlns="http://www.w3.org/2000/svg" xmlns:xlink="http://www.w3.org/1999/xlink" x="0px" y="0px"
	 width="40px" height="40px" viewBox="0 0 40 40" enable-background="new 0 0 40 40" xml:space="preserve">
<g>
	<g>
		<path d="M18.127,7.411c-0.032-0.027-0.06-0.086,0.133-0.156l1.267-0.506c3.432-1.369,7.087-2.083,10.783-2.105h2.165v6.417
			c0.072,0.931,0.887,1.626,1.815,1.554c0.831-0.064,1.49-0.724,1.555-1.554V2.962c0.004-0.446-0.171-0.875-0.484-1.194
			c-0.301-0.352-0.743-0.548-1.205-0.536h-3.856C26.174,1.264,22.097,2.07,18.272,3.61l-0.274,0.116l-0.911-0.288
			C13.274,1.965,9.22,1.217,5.132,1.232h-3.3c-0.936,0.011-1.686,0.775-1.681,1.71v30.016c0.011,0.928,0.765,1.672,1.69,1.672h0.75
			c3.307,0.016,6.588,0.588,9.708,1.689c0.179,0.063,0.367,0.094,0.556,0.094c0.934-0.014,1.682-0.779,1.672-1.713
			c-0.008-0.703-0.452-1.328-1.115-1.57h0.03c-3.191-1.123-6.538-1.74-9.92-1.83V4.613h1.63c3.667-0.03,7.305,0.626,10.73,1.933
			l2.115,0.812C18.071,7.384,18.106,7.4,18.127,7.411z M13.2,11.91H7.916c-0.934,0-1.691,0.756-1.691,1.689
			c-0.001,0.933,0.755,1.692,1.689,1.692H13.2c0.934,0,1.689-0.759,1.689-1.692C14.889,12.666,14.134,11.911,13.2,11.91z
			 M13.2,20.625H7.916c-0.934,0-1.691,0.756-1.691,1.689c-0.001,0.934,0.755,1.689,1.689,1.689H13.2
			c0.934,0,1.689-0.756,1.689-1.689C14.889,21.381,14.134,20.625,13.2,20.625z M30.495,22.998c-2.3-1.33-5.241-0.541-6.567,1.762
			c-1.329,2.299-0.542,5.24,1.758,6.57c2.302,1.328,5.243,0.539,6.57-1.764C33.582,27.268,32.795,24.326,30.495,22.998z
			 M30.747,28.695c-0.847,1.469-2.725,1.971-4.188,1.123c-1.468-0.846-1.97-2.721-1.123-4.188c0.847-1.469,2.723-1.971,4.188-1.123
			C31.092,25.352,31.594,27.23,30.747,28.695z M39.084,23.689l-2.576-0.363c-0.325-0.703-0.736-1.365-1.223-1.967l0.902-2.219
			c0.168-0.409,0.004-0.882-0.381-1.099l-4.095-2.364c-0.381-0.219-0.867-0.126-1.137,0.223l-1.604,2.061
			c-0.774-0.075-1.555-0.053-2.324,0.069l-1.464-1.877c-0.27-0.35-0.752-0.445-1.135-0.226l-4.093,2.359
			c-0.38,0.226-0.534,0.697-0.36,1.104l0.986,2.379c-0.472,0.65-0.858,1.357-1.146,2.109l-2.309,0.318
			c-0.442,0.041-0.785,0.408-0.798,0.85l-0.004,4.719c0.002,0.443,0.328,0.814,0.765,0.873l2.484,0.34
			c0.333,0.754,0.766,1.461,1.288,2.1L20,35.188c-0.169,0.412-0.004,0.885,0.385,1.102l4.085,2.359
			c0.382,0.223,0.869,0.127,1.139-0.223l1.53-1.977c0.818,0.08,1.643,0.053,2.454-0.08l1.406,1.813
			c0.271,0.348,0.757,0.445,1.142,0.227l4.084-2.363c0.383-0.227,0.537-0.701,0.36-1.109l-0.946-2.352
			c0.14-0.244,0.32-0.477,0.467-0.73c0.259-0.441,0.478-0.908,0.656-1.391l2.322-0.313c0.438-0.053,0.765-0.426,0.765-0.867v-4.723
			C39.849,24.119,39.521,23.746,39.084,23.689z M38.08,28.514l-2.085,0.291c-0.343,0.051-0.626,0.293-0.728,0.625
			c-0.162,0.545-0.388,1.064-0.673,1.553c-0.186,0.328-0.397,0.641-0.632,0.934c-0.197,0.252-0.246,0.588-0.126,0.885l0.859,2.107
			l-2.786,1.578l-1.273-1.633c-0.208-0.271-0.555-0.395-0.889-0.318c-0.946,0.217-1.924,0.256-2.884,0.107
			c-0.314-0.051-0.633,0.076-0.827,0.328l-1.366,1.77l-2.747-1.586l0.783-1.908c0.133-0.318,0.066-0.682-0.168-0.936
			c-0.659-0.707-1.172-1.535-1.509-2.443c-0.112-0.305-0.384-0.521-0.706-0.564l-2.229-0.301l0.006-3.182l2.072-0.277
			c0.338-0.045,0.618-0.279,0.72-0.604c0.164-0.516,0.383-1.012,0.654-1.479c0.204-0.352,0.434-0.686,0.69-1.002
			c0.203-0.248,0.256-0.592,0.137-0.893l-0.871-2.136l2.746-1.57l1.318,1.703c0.21,0.263,0.549,0.385,0.88,0.318
			c0.907-0.199,1.845-0.228,2.765-0.088c0.322,0.049,0.649-0.084,0.845-0.349l1.435-1.851l2.763,1.594l-0.818,2.008
			c-0.129,0.314-0.064,0.676,0.168,0.928c0.628,0.684,1.128,1.479,1.468,2.34c0.115,0.297,0.383,0.51,0.699,0.553l2.313,0.314
			L38.08,28.514z"/>
	</g>
</g>
</svg>
