<?xml version="1.0" encoding="utf-8"?>
<!-- Generator: Adobe Illustrator 15.0.0, SVG Export Plug-In . SVG Version: 6.00 Build 0)  -->
<!DOCTYPE svg PUBLIC "-//W3C//DTD SVG 1.1//EN" "http://www.w3.org/Graphics/SVG/1.1/DTD/svg11.dtd">
<svg version="1.1" id="图层_1" xmlns="http://www.w3.org/2000/svg" xmlns:xlink="http://www.w3.org/1999/xlink" x="0px" y="0px"
	 width="40px" height="40px" viewBox="0 0 40 40" enable-background="new 0 0 40 40" xml:space="preserve">
<path d="M1.941,37.123h36.136v2.813H1.941V37.123z M3.401,33.676l11.041-1.382c0.282-0.046,0.541-0.164,0.753-0.351L37.721,12.02
	c0.591-0.517,0.638-1.407,0.118-1.992l-8.355-9.376C28.967,0.066,28.07,0.02,27.48,0.534L4.955,20.457
	c-0.212,0.189-0.354,0.445-0.425,0.704L1.847,31.92c-0.118,0.446,0,0.938,0.306,1.266C2.46,33.561,2.93,33.748,3.401,33.676z
	 M28.283,3.581l6.495,7.267l-4.259,3.774l-6.498-7.267L28.283,3.581z M7.168,22.285l14.76-13.056l6.495,7.267L13.641,29.551
	l-8.568,1.078L7.168,22.285z"/>
</svg>
