<?xml version="1.0" encoding="utf-8"?>
<!-- Generator: Adobe Illustrator 15.0.0, SVG Export Plug-In . SVG Version: 6.00 Build 0)  -->
<!DOCTYPE svg PUBLIC "-//W3C//DTD SVG 1.1//EN" "http://www.w3.org/Graphics/SVG/1.1/DTD/svg11.dtd">
<svg version="1.1" id="图层_1" xmlns="http://www.w3.org/2000/svg" xmlns:xlink="http://www.w3.org/1999/xlink" x="0px" y="0px"
	 width="40px" height="40px" viewBox="0 0 40 40" enable-background="new 0 0 40 40" xml:space="preserve">
<g>
	<g>
		<path d="M28.399,28.489H11.401c-0.79,0-1.427,0.636-1.427,1.422s0.638,1.422,1.427,1.422h16.999c0.784,0,1.428-0.636,1.428-1.422
			S29.189,28.489,28.399,28.489z M38.373,10.819c-0.089-0.215-0.232-0.399-0.408-0.545l-8.848-9.7
			c-0.047-0.051-0.108-0.075-0.16-0.118c-0.261-0.276-0.629-0.451-1.041-0.451h-0.778C27.119,0.005,27.103,0,27.084,0
			s-0.035,0.005-0.054,0.005H4.24c-1.512,0-2.742,1.23-2.742,2.742V37.1c0,1.509,1.23,2.742,2.742,2.742h31.516
			c1.517,0,2.747-1.233,2.747-2.742V11.407C38.503,11.197,38.455,10.999,38.373,10.819z M28.512,4.14l5.29,5.8h-5.285l-0.005-0.004
			V4.14z M35.649,37.001H4.351V2.85h21.307v7.09c0,1.569,1.281,2.845,2.854,2.845h7.138V37.001z M28.464,22.771H11.37
			c-0.789,0-1.427,0.638-1.427,1.425c0,0.786,0.638,1.422,1.427,1.422h17.094c0.781,0,1.424-0.636,1.424-1.422
			C29.888,23.408,29.25,22.771,28.464,22.771z M11.37,17.092c-0.789,0-1.427,0.635-1.427,1.421s0.638,1.423,1.427,1.423h17.094
			c0.781,0,1.424-0.636,1.424-1.423s-0.638-1.421-1.424-1.421H11.37z"/>
	</g>
</g>
</svg>
