<svg xmlns="http://www.w3.org/2000/svg" xmlns:xlink="http://www.w3.org/1999/xlink" version="1.1" width="18" height="18" viewBox="0 0 18 18"><g><path d="M16.7947,7.79704L10.1983,7.79704L10.1983,1.20062C10.1983,0.537244,9.66104,0,8.99766,0C8.33428,0,7.79704,0.537244,7.79704,1.20062L7.79704,7.79938L1.20062,7.79938C0.537244,7.79938,0,8.33662,0,9C0,9.66338,0.537244,10.2006,1.20062,10.2006L7.79938,10.2006L7.79938,16.7994C7.79938,17.4628,8.33662,18,9,18C9.66338,18,10.2006,17.4628,10.2006,16.7994L10.2006,10.1983L16.7994,10.1983C17.4628,10.1983,18,9.66104,18,8.99766C17.9953,8.33428,17.4581,7.79704,16.7947,7.79704Z"/></g></svg>