<?xml version="1.0" standalone="no"?><!DOCTYPE svg PUBLIC "-//W3C//DTD SVG 1.1//EN" "http://www.w3.org/Graphics/SVG/1.1/DTD/svg11.dtd"><svg t="1758799696938" class="icon" viewBox="0 0 1024 1024" version="1.1" xmlns="http://www.w3.org/2000/svg" p-id="5041" id="mx_n_1758799696940" xmlns:xlink="http://www.w3.org/1999/xlink" width="200" height="200"><path d="M582.269738 996.295481L18.702621 677.245289a11.141571 11.141571 0 0 1 0-19.337669L414.719296 431.148908a11.141571 11.141571 0 0 1 11.013506 0l568.646991 323.703185a11.098883 11.098883 0 0 1 0 19.337669l-401.267301 221.977655a11.013507 11.013507 0 0 1-10.842754 0.128064z" fill="#EAEAEA" p-id="5042"></path><path d="M383.044792 851.668501a7.769218 7.769218 0 0 1-7.598466 0l-157.604136-91.565783a4.524929 4.524929 0 0 1 0-7.854594l96.474905-54.597966a24.289478 24.289478 0 0 1 23.990662 0l143.260963 81.704853a7.769218 7.769218 0 0 1 0 13.532099z" fill="#B7B7B8" p-id="5043"></path><path d="M588.843691 1021.524095l393.370019-223.557112a35.815241 35.815241 0 0 0 17.630148-27.192262l0.597632-5.37869-411.597799 230.173754" fill="#727272" p-id="5044"></path><path d="M589.910891 998.04569L12.897051 670.201768 12.299419 682.666667a16.819076 16.819076 0 0 0 8.537602 15.239619l569.28731 326.093714" fill="#C6C6C6" p-id="5045"></path><path d="M983.70779 750.284476L433.459332 435.844589a18.654661 18.654661 0 0 1-9.43405-16.264132V18.740037A18.697349 18.697349 0 0 1 451.985929 2.475905l550.248458 313.756878a18.740037 18.740037 0 0 1 9.43405 16.221444V734.233784a18.740037 18.740037 0 0 1-27.960647 16.050692z" fill="#BCBCBC" p-id="5046"></path><path d="M987.720463 750.540604L425.604738 433.069868A7.000834 7.000834 0 0 1 422.104321 426.880107V12.806403a7.08621 7.08621 0 0 1 10.543939-6.189761L989.043791 324.428881a18.142405 18.142405 0 0 1 9.348675 16.008004v403.913957a7.128898 7.128898 0 0 1-10.672003 6.189762z" fill="#DDDDDD" p-id="5047"></path><path d="M970.004938 717.158579L440.972422 415.65316a6.317826 6.317826 0 0 1-3.201601-5.506753V41.321994a6.317826 6.317826 0 0 1 9.391363-5.506753l524.763715 303.084876a16.178756 16.178756 0 0 1 8.238786 14.087043l-0.768384 358.963482a6.317826 6.317826 0 0 1-9.391363 5.207937z" fill="#EAEAEA" p-id="5048"></path><path d="M957.283911 648.174754L618.469171 455.096882a4.012673 4.012673 0 0 1-2.049025-3.500417V215.489078a4.268801 4.268801 0 0 1 6.01901-3.543105l335.911956 193.888944a10.373187 10.373187 0 0 1 5.250625 9.007171l-0.298816 229.746873a4.268801 4.268801 0 0 1-6.01901 3.585793z" fill="#FFFFFF" p-id="5049"></path><path d="M957.283911 485.960313L618.469171 292.882441a4.012673 4.012673 0 0 1-2.049025-3.500417v-26.936134a4.268801 4.268801 0 0 1 6.01901-3.543105l335.911956 193.888944a10.373187 10.373187 0 0 1 5.250625 9.00717l-0.469568 20.61831a4.268801 4.268801 0 0 1-5.848258 3.543104z" fill="#97D3D6" p-id="5050"></path><path d="M628.372789 243.535101a6.061698 3.799233 90 1 0 7.598466 0 6.061698 3.799233 90 1 0-7.598466 0Z" fill="#5BBAEA" p-id="5051"></path><path d="M644.807673 252.414207a6.061698 3.799233 90 1 0 7.598466 0 6.061698 3.799233 90 1 0-7.598466 0Z" fill="#5BBAEA" p-id="5052"></path><path d="M659.535037 261.336001a6.061698 3.799233 90 1 0 7.598466 0 6.061698 3.799233 90 1 0-7.598466 0Z" fill="#5BBAEA" p-id="5053"></path><path d="M897.392632 544.058696a14.38586 14.38586 0 0 1-16.221444-2.305153l-78.887443-73.59413a14.343172 14.343172 0 0 0-15.623812-2.603969l-7.683842 3.457729a14.38586 14.38586 0 0 1-19.337669-8.110722l-20.191429-54.597965a14.343172 14.343172 0 0 0-20.532933-7.470402l-4.268801 2.390528a14.343172 14.343172 0 0 1-19.337669-5.378689l-26.808071-46.956812a14.343172 14.343172 0 0 0-26.808071 7.08621v78.716692a14.300484 14.300484 0 0 0 7.256962 12.464899l248.27347 141.468067a14.343172 14.343172 0 0 0 21.344006-12.806403l-0.298816-19.038853a14.343172 14.343172 0 0 0-20.874438-12.721027z" fill="#8DC9E8" p-id="5054"></path><path d="M599.38763 311.963982L445.326599 224.112056a1.92096 1.92096 0 0 1-0.939136-1.579456V115.257629a1.835584 1.835584 0 0 1 2.732033-1.579457l152.823078 88.19343a4.652993 4.652993 0 0 1 2.433217 4.268802v104.542938a1.878272 1.878272 0 0 1-2.988161 1.28064z" fill="#FFFFFF" p-id="5055"></path><path d="M599.38763 238.156412l-154.061031-87.851926a1.92096 1.92096 0 0 1-0.939136-1.579457V136.601634a1.835584 1.835584 0 0 1 2.732033-1.622144l152.823078 88.19343a4.781057 4.781057 0 0 1 2.433217 4.268801v9.391362a1.878272 1.878272 0 0 1-2.988161 1.323329z" fill="#97D3D6" p-id="5056"></path><path d="M445.497351 106.506587a2.732033 1.70752 90 1 0 3.415041 0 2.732033 1.70752 90 1 0-3.415041 0Z" fill="#5BBAEA" p-id="5057"></path><path d="M452.967753 110.561948a2.732033 1.70752 90 1 0 3.415041 0 2.732033 1.70752 90 1 0-3.415041 0Z" fill="#5BBAEA" p-id="5058"></path><path d="M459.712459 114.617309a2.732033 1.70752 90 1 0 3.415041 0 2.732033 1.70752 90 1 0-3.415041 0Z" fill="#5BBAEA" p-id="5059"></path><path d="M572.152679 264.665666a6.488578 6.488578 0 0 1-7.385026-1.0672L528.824348 230.04569a6.488578 6.488578 0 0 0-7.08621-1.195265l-3.500416 1.579457a6.531266 6.531266 0 0 1-8.793731-3.671169l-9.177922-24.844423a6.573954 6.573954 0 0 0-9.348674-3.41504l-1.963649 1.109888a6.531266 6.531266 0 0 1-8.879106-2.475905l-12.208771-21.344005a6.488578 6.488578 0 0 0-12.166083 3.201601v35.729865a6.488578 6.488578 0 0 0 3.286977 5.677505l112.952476 64.37352a6.531266 6.531266 0 0 0 9.732866-5.762881v-8.537602a6.531266 6.531266 0 0 0-9.519426-5.80557z" fill="#8DC9E8" p-id="5060"></path><path d="M599.38763 446.388528L445.326599 358.57929a1.792896 1.792896 0 0 1-0.939136-1.579457V249.55411a1.835584 1.835584 0 0 1 2.732033-1.622144l152.823078 88.19343a4.781057 4.781057 0 0 1 2.433217 4.268801v104.542938a1.835584 1.835584 0 0 1-2.988161 1.451393z" fill="#FFFFFF" p-id="5061"></path><path d="M599.38763 372.580957l-154.061031-87.809238a1.92096 1.92096 0 0 1-0.939136-1.622144v-12.251459a1.835584 1.835584 0 0 1 2.732033-1.579457l152.823078 88.19343a4.652993 4.652993 0 0 1 2.433217 4.268801v9.391363a1.835584 1.835584 0 0 1-2.988161 1.408704z" fill="#97D3D6" p-id="5062"></path><path d="M449.766152 262.317826a2.732033 1.70752 90 1 0 3.415041 0 2.732033 1.70752 90 1 0-3.415041 0Z" fill="#5BBAEA" p-id="5063"></path><path d="M457.236554 266.330499a2.732033 1.70752 90 1 0 3.415041 0 2.732033 1.70752 90 1 0-3.415041 0Z" fill="#5BBAEA" p-id="5064"></path><path d="M463.98126 270.38586a2.732033 1.70752 90 1 0 3.415041 0 2.732033 1.70752 90 1 0-3.415041 0Z" fill="#5BBAEA" p-id="5065"></path><path d="M572.152679 399.047524a6.616642 6.616642 0 0 1-7.385026-1.067201L528.824348 364.512923a6.488578 6.488578 0 0 0-7.08621-1.195264l-3.500416 1.579456a6.531266 6.531266 0 0 1-8.793731-3.713857l-9.177922-24.844422a6.531266 6.531266 0 0 0-9.348674-3.372353l-1.963649 1.067201a6.531266 6.531266 0 0 1-8.879106-2.433217l-12.208771-21.344005a6.531266 6.531266 0 0 0-12.166083 3.244288v35.687177a6.488578 6.488578 0 0 0 3.286977 5.677506l112.995164 64.330832a6.488578 6.488578 0 0 0 9.732866-5.762882v-8.537602a6.531266 6.531266 0 0 0-9.562114-5.848257z" fill="#8DC9E8" p-id="5066"></path><path d="M563.828517 754.169085l-153.249958-89.132567a21.344005 21.344005 0 0 0-19.209605 0.725696l-15.709188 8.964483c-5.677505 3.286977-6.317826 8.238786-1.408704 11.098882l153.249958 89.175255a21.344005 21.344005 0 0 0 19.209605-0.768384l15.709188-8.964483c5.677505-3.286977 6.317826-8.238786 1.408704-11.098882zM425.519362 474.647991l20.917126 12.166083a10.287811 10.287811 0 0 0 9.305986-0.341504l7.555778-4.268801c2.732033-1.579456 3.030849-4.012673 0.683008-5.37869l-20.959813-12.166083a10.287811 10.287811 0 0 0-9.305987 0.341504l-7.513089 4.268801c-2.774721 1.579456-3.073537 4.012673-0.683009 5.37869zM385.307256 497.699516l20.234117 11.781891a10.415875 10.415875 0 0 0 9.305987-0.384192l21.087877-12.080707c2.732033-1.579456 3.030849-3.969985 0.683008-5.336001l-20.276805-11.781891a10.159747 10.159747 0 0 0-9.263298 0.341504l-21.087878 12.080707c-2.774721 1.579456-3.073537 3.969985-0.683008 5.378689zM421.378625 518.65933l20.234117 11.781891a10.330499 10.330499 0 0 0 9.263299-0.341504l21.087877-12.080707c2.774721-1.579456 3.073537-3.969985 0.683008-5.37869l-20.234117-11.781891a10.330499 10.330499 0 0 0-9.263298 0.384192L422.104321 513.323328c-2.817409 1.579456-3.116225 3.969985-0.725696 5.336002zM457.407306 539.661831l20.276805 11.781891a10.330499 10.330499 0 0 0 9.263299-0.384192l21.087877-12.080707c2.774721-1.579456 3.073537-3.969985 0.683008-5.336002l-20.234117-11.781891a10.287811 10.287811 0 0 0-9.305986 0.341505l-21.087878 12.080707c-2.732033 1.579456-3.030849 3.969985-0.683008 5.378689zM493.478675 560.621644l20.276805 11.781891a10.330499 10.330499 0 0 0 9.263299-0.341504l21.087877-12.080707c2.774721-1.579456 3.073537-3.969985 0.683008-5.378689l-20.234117-11.781891a10.415875 10.415875 0 0 0-9.305986 0.384192l-21.087877 12.080707c-2.732033 1.579456-3.030849 3.927297-0.683009 5.336001zM529.550044 581.624145l20.276805 11.781891a10.330499 10.330499 0 0 0 9.263299-0.384192l21.087877-12.080707c2.774721-1.579456 3.073537-3.969985 0.683008-5.336001l-20.234117-11.781891a10.287811 10.287811 0 0 0-9.305986 0.341504l-21.087877 12.123395c-2.732033 1.536768-3.030849 3.927297-0.683009 5.336001zM565.621413 602.583959l20.276805 11.781891a10.330499 10.330499 0 0 0 9.263299-0.341504l21.087877-12.080708c2.774721-1.579456 3.073537-3.969985 0.683008-5.378689L596.698285 584.825746a10.415875 10.415875 0 0 0-9.305986 0.384192l-21.087877 12.080707c-2.732033 1.536768-3.030849 3.927297-0.683009 5.293314zM601.692782 623.58646l20.234117 11.781891a10.415875 10.415875 0 0 0 9.305987-0.384192l21.087877-12.080707c2.732033-1.579456 3.073537-3.969985 0.683008-5.336002l-20.234117-11.781891a10.287811 10.287811 0 0 0-9.305986 0.341505l-21.087877 12.080707c-2.732033 1.579456-3.073537 3.969985-0.683009 5.378689zM637.764151 644.588961l20.234117 11.781891a10.415875 10.415875 0 0 0 9.305987-0.341504l21.087877-12.080707c2.732033-1.579456 3.073537-3.969985 0.683008-5.378689l-20.276805-11.781891a10.330499 10.330499 0 0 0-9.263298 0.384192l-21.087877 12.080707c-2.902785 1.536768-2.902785 3.927297-0.683009 5.336001zM674.518529 660.170085c-2.774721 1.579456-3.073537 3.969985-0.683009 5.378689l20.234117 11.781891a10.415875 10.415875 0 0 0 9.305987-0.384192l21.087877-12.080707c2.732033-1.579456 3.030849-3.969985 0.683008-5.336001l-20.276805-11.781891a10.159747 10.159747 0 0 0-9.263298 0.341504zM729.927566 668.067367l-21.045189 12.080707c-2.774721 1.579456-3.073537 3.969985-0.683008 5.378689l20.234117 11.781891a10.330499 10.330499 0 0 0 9.263298-0.384192l21.087878-12.080707c2.774721-1.579456 3.073537-3.969985 0.683008-5.336001l-20.234117-11.781891a10.287811 10.287811 0 0 0-9.305987 0.341504zM765.998935 689.069868l-21.087877 12.080707c-2.732033 1.579456-3.030849 3.969985-0.683008 5.336002l20.276805 11.781891a10.159747 10.159747 0 0 0 9.263298-0.341505l21.087878-12.080707c2.774721-1.579456 3.073537-3.969985 0.683008-5.378689l-20.234117-11.781891a10.415875 10.415875 0 0 0-9.305987 0.384192zM800.576224 739.270969a10.330499 10.330499 0 0 0 9.263298-0.384192l21.087878-12.080707c2.774721-1.579456 3.073537-3.969985 0.683008-5.336002l-20.234117-11.781891a10.287811 10.287811 0 0 0-9.305987 0.341505l-21.087877 12.080707c-2.732033 1.579456-3.030849 3.969985-0.683008 5.378689zM866.657265 741.832249L846.423148 729.964982a10.415875 10.415875 0 0 0-9.305987 0.384193l-21.087877 12.080707c-2.732033 1.579456-3.073537 3.969985-0.683008 5.336001l20.276805 11.781891a10.330499 10.330499 0 0 0 9.263298-0.341504L866.059632 747.040187c2.646657-1.408704 2.988161-3.799233 0.597633-5.207938zM428.550211 563.481741l21.087877-12.080707c2.732033-1.579456 3.073537-3.969985 0.683009-5.378689l-20.276806-11.781891a10.330499 10.330499 0 0 0-9.263298 0.384192l-21.087877 12.080707c-2.774721 1.579456-3.073537 3.969985-0.683008 5.336001l20.234117 11.781891a10.287811 10.287811 0 0 0 9.305986-0.341504zM344.412142 520.324162l36.711689 21.344005a10.415875 10.415875 0 0 0 9.305987-0.384192l21.087877-11.952643c2.732033-1.579456 3.030849-3.969985 0.683008-5.336001l-36.754377-21.344005a10.458563 10.458563 0 0 0-9.263298 0.341504l-20.917126 11.995331c-2.945473 1.536768-3.244289 3.969985-0.85376 5.336001zM455.315594 584.825746a10.415875 10.415875 0 0 0 9.305986-0.384192l21.087877-12.080707c2.732033-1.579456 3.030849-3.969985 0.683009-5.336001l-20.276806-11.781891a10.330499 10.330499 0 0 0-9.263298 0.341504L435.764485 567.750542c-2.774721 1.579456-3.073537 3.969985-0.683008 5.378689zM491.386963 605.828247a10.287811 10.287811 0 0 0 9.305986-0.341504l21.087877-12.080707c2.732033-1.579456 3.030849-3.969985 0.683009-5.378689l-20.276805-11.739203a10.330499 10.330499 0 0 0-9.263299 0.384192l-21.087877 12.080707c-2.774721 1.579456-3.073537 3.969985-0.683008 5.336002zM507.224215 615.048858l20.234117 11.781891a10.415875 10.415875 0 0 0 9.305986-0.384192l21.087877-12.080707c2.732033-1.579456 3.030849-3.969985 0.683009-5.336002l-20.276805-11.781891a10.330499 10.330499 0 0 0-9.434051 0.384192l-21.087877 12.080707c-2.603969 1.536768-2.902785 3.927297-0.512256 5.336002zM543.295584 636.051359l20.234117 11.781891a10.287811 10.287811 0 0 0 9.305986-0.341504l21.045189-12.080707c2.774721-1.579456 3.073537-3.969985 0.725697-5.378689l-20.276805-11.781891a10.330499 10.330499 0 0 0-9.263299 0.384192l-21.087877 12.080707c-2.774721 1.536768-3.073537 3.927297-0.683008 5.336001zM579.324265 657.011172l20.276805 11.781891a10.330499 10.330499 0 0 0 9.263298-0.384192l21.087877-12.080707c2.774721-1.579456 3.073537-3.969985 0.683009-5.336001l-20.234117-11.781891a10.415875 10.415875 0 0 0-9.305987 0.341504l-21.045189 12.080707c-2.774721 1.49408-3.073537 3.969985-0.725696 5.378689zM615.395634 677.970985l20.276805 11.781891a10.159747 10.159747 0 0 0 9.263298-0.341504l21.087877-12.080707c2.774721-1.579456 3.073537-3.969985 0.683009-5.378689l-20.234117-11.781891a10.415875 10.415875 0 0 0-9.305987 0.384192l-21.087877 12.080707c-2.732033 1.579456-3.030849 3.969985-0.683008 5.336001zM669.694783 709.560113a10.415875 10.415875 0 0 0 9.305987-0.384192l21.087877-12.080707c2.732033-1.579456 3.073537-3.969985 0.683008-5.336001l-20.276805-11.781891a10.159747 10.159747 0 0 0-9.263298 0.341504l-21.087877 12.080707c-2.732033 1.579456-3.073537 3.969985-0.683009 5.378689zM685.489347 718.738036l20.234117 11.781891a10.287811 10.287811 0 0 0 9.305987-0.341504l21.087877-12.080707c2.732033-1.579456 3.030849-3.969985 0.683008-5.37869L716.651595 700.937135a10.330499 10.330499 0 0 0-9.263298 0.384192l-21.087877 12.080707c-2.902785 1.579456-3.201601 3.969985-0.811073 5.336002zM721.560716 739.740537l20.234117 11.781891a10.415875 10.415875 0 0 0 9.305987-0.384192l21.087877-12.080707c2.732033-1.579456 3.030849-3.969985 0.683008-5.336002l-20.276805-11.781891a10.159747 10.159747 0 0 0-9.263298 0.341505l-21.087877 11.952643c-2.774721 1.70752-3.073537 4.268801-0.683009 5.506753zM757.632085 760.70035l20.234117 11.781891a10.287811 10.287811 0 0 0 9.305987-0.341504l21.087877-12.080707c2.732033-1.579456 3.030849-3.969985 0.683008-5.378689l-20.276805-11.909955a10.330499 10.330499 0 0 0-9.263298 0.384192l-21.087877 12.422211c-2.774721 1.366016-3.244289 3.756545-0.683009 5.122561zM842.922731 774.488578l-20.234117-11.781891a10.287811 10.287811 0 0 0-9.305987 0.341504l-21.087877 12.080707c-2.732033 1.579456-3.030849 3.969985-0.683008 5.378689l20.276805 11.781891a10.330499 10.330499 0 0 0 9.263298-0.384192l21.087878-12.080707c2.774721-1.579456 3.073537-3.969985 0.683008-5.336001zM878.866036 795.448391l-20.234117-11.781891a10.415875 10.415875 0 0 0-9.305987 0.384192l-21.087877 12.080707c-2.732033 1.579456-3.030849 3.969985-0.683008 5.336001l20.276805 11.781891a10.330499 10.330499 0 0 0 9.263298-0.341504l21.087878-12.080707c2.902785-1.579456 3.201601-3.969985 0.683008-5.378689zM303.218212 545.125896L349.534703 572.019343a10.287811 10.287811 0 0 0 9.305987-0.341504l21.087877-12.080707c2.732033-1.579456 3.030849-3.969985 0.683008-5.378689l-46.359179-26.936135a10.287811 10.287811 0 0 0-9.305987 0.341504l-21.087877 12.080707c-2.689345 1.622144-3.030849 4.012673-0.64032 5.421377zM365.371955 581.282641l20.276805 11.781891a10.458563 10.458563 0 0 0 9.263299-0.341504l21.087877-12.166083c2.774721-1.536768 3.073537-3.969985 0.683008-5.336001L396.491515 563.481741a10.415875 10.415875 0 0 0-9.305986 0.341504l-21.045189 12.080707c-2.817409 1.579456-3.116225 3.969985-0.768385 5.378689zM401.443324 602.242455l20.276805 11.781891a10.159747 10.159747 0 0 0 9.263299-0.341505l21.087877-12.080707c2.774721-1.579456 3.073537-3.969985 0.683008-5.378689l-20.234117-11.781891a10.415875 10.415875 0 0 0-9.305986 0.384192l-21.087878 12.080707c-2.732033 1.579456-3.030849 3.969985-0.683008 5.336002zM437.514693 623.244956l20.276805 11.781891a10.330499 10.330499 0 0 0 9.263299-0.384192l21.087877-12.080707c2.774721-1.579456 3.073537-3.969985 0.683008-5.336002l-20.234117-11.781891a10.415875 10.415875 0 0 0-9.305986 0.341504l-21.087877 12.080707c-2.732033 1.579456-3.030849 3.969985-0.683009 5.37869zM503.211542 655.645156l21.087877-12.080707c2.774721-1.579456 3.073537-3.969985 0.683008-5.378689l-20.234117-11.781891a10.415875 10.415875 0 0 0-9.305986 0.384192l-21.087877 12.080707c-2.732033 1.579456-3.030849 3.969985-0.683009 5.336001l20.276805 11.781891a10.159747 10.159747 0 0 0 9.263299-0.341504zM539.197535 676.604969l21.087877-12.080707c2.732033-1.579456 3.073537-3.969985 0.683008-5.336001l-20.234117-11.781891a10.415875 10.415875 0 0 0-9.305986 0.341504l-21.087877 12.080707c-2.732033 1.579456-3.073537 3.969985-0.683009 5.378689l20.276805 11.781891a10.330499 10.330499 0 0 0 9.263299-0.384192zM575.268904 697.60747l21.087877-12.080707c2.732033-1.579456 3.073537-3.969985 0.683008-5.378689l-20.276805-11.781891a10.330499 10.330499 0 0 0-9.263298 0.384192l-21.087877 12.080707c-2.732033 1.579456-3.073537 3.969985-0.683009 5.336002l20.234117 11.78189a10.287811 10.287811 0 0 0 9.305987-0.341504zM611.340273 718.567284l21.087877-12.080707c2.732033-1.579456 3.030849-3.969985 0.683008-5.336002l-20.276805-11.781891a10.330499 10.330499 0 0 0-9.263298 0.341504l-21.087877 12.080707c-2.774721 1.579456-3.073537 3.969985-0.683009 5.37869l20.234117 11.781891a10.415875 10.415875 0 0 0 9.305987-0.384192zM615.438322 726.763382L635.544375 738.502585a10.330499 10.330499 0 0 0 9.263298-0.384192l21.087877-12.080707c2.774721-1.579456 3.073537-3.969985 0.683009-5.336002l-20.234117-11.781891a10.287811 10.287811 0 0 0-9.305987 0.341504l-20.874437 12.166083c-2.774721 1.536768-3.073537 3.927297-0.725696 5.336002zM681.049794 759.163582l21.087878-12.123395c2.774721-1.579456 3.073537-3.969985 0.683008-5.37869L682.501187 729.964982a10.543939 10.543939 0 0 0-9.305987 0.341505l-21.087877 12.123395c-2.732033 1.536768-3.030849 3.969985-0.683008 5.336001l20.276805 11.781891a10.330499 10.330499 0 0 0 9.348674-0.384192zM687.58106 768.683008l20.276805 11.781891a10.159747 10.159747 0 0 0 9.263298-0.341504l21.087878-12.080707c2.774721-1.579456 3.073537-3.969985 0.683008-5.336001l-20.234117-11.781891a10.287811 10.287811 0 0 0-9.305987 0.341504l-21.087877 12.080707c-2.732033 1.579456-3.030849 3.969985-0.683008 5.336001zM723.652429 789.728197l20.276805 11.781891a10.330499 10.330499 0 0 0 9.263298-0.341504l21.087878-12.080707c2.774721-1.579456 3.073537-3.969985 0.683008-5.378689l-20.234117-11.781891a10.415875 10.415875 0 0 0-9.305987 0.341504l-21.087877 12.080707c-2.732033 1.536768-3.030849 3.969985-0.683008 5.378689zM781.494683 793.228614l-21.087877 12.080707c-2.732033 1.579456-3.073537 3.969985-0.683008 5.336002l44.651659 26.039686a10.458563 10.458563 0 0 0 9.263298-0.341504l21.087878-12.123395c2.774721-1.536768 3.073537-3.969985 0.683008-5.336001l-44.608971-25.954311a10.287811 10.287811 0 0 0-9.305987 0.298816zM359.48101 592.765716c2.732033-1.536768 3.073537-3.969985 0.683008-5.336001l-64.032016-37.352009a10.287811 10.287811 0 0 0-9.305986 0.341504l-21.087878 12.080707c-2.732033 1.579456-3.073537 3.969985-0.683008 5.378689l64.032016 37.352009a10.458563 10.458563 0 0 0 9.263299-0.341504zM395.552379 613.768217c2.732033-1.579456 3.073537-3.969985 0.683008-5.378689l-20.276805-11.781891a10.330499 10.330499 0 0 0-9.263298 0.384192l-21.087878 12.080707c-2.732033 1.579456-3.073537 3.969985-0.683008 5.336002l20.234117 11.781891a10.287811 10.287811 0 0 0 9.305987-0.341505zM274.0623 585.59413l-20.276805-11.781891a10.330499 10.330499 0 0 0-9.263298 0.384193L218.269071 589.094547c-2.774721 1.579456-3.073537 3.969985-0.683009 5.37869l20.234117 11.781891A10.330499 10.330499 0 0 0 247.083478 606.169752l26.295814-15.02618c2.732033-1.750208 3.030849-4.140737 0.683008-5.549442zM310.475174 606.767384l-20.276805-11.781891a10.330499 10.330499 0 0 0-9.263299 0.384192L254.639256 610.438553c-2.732033 1.579456-3.030849 3.969985-0.683009 5.378689l20.276806 11.696515a10.330499 10.330499 0 0 0 9.263298-0.384192l26.295814-15.02618c2.732033-1.664832 3.030849-3.927297 0.683009-5.336001zM346.888047 627.983325l-20.276805-11.781891a10.159747 10.159747 0 0 0-9.263299 0.341504L291.052129 631.782558c-2.732033 1.579456-3.030849 4.012673-0.683008 5.378689l20.276805 11.696515a10.330499 10.330499 0 0 0 9.263298-0.341504l26.295815-15.068868c2.732033-1.664832 3.030849-4.098049 0.683008-5.464065zM648.350778 803.388361l-20.276805-11.781891a10.330499 10.330499 0 0 0-9.263298 0.384192l-25.954311 15.02618c-2.732033 1.579456-3.030849 3.969985-0.683008 5.378689l20.276805 11.781891a10.330499 10.330499 0 0 0 9.263298-0.384192l26.295815-15.02618c2.518593-1.579456 2.817409-3.969985 0.341504-5.378689zM720.40814 843.899283l-20.234117-11.781891a10.287811 10.287811 0 0 0-9.135234 0.298816l-4.268801 2.518593c-2.732033 1.579456-3.073537 3.969985-0.683009 5.336001l20.234118 11.781891a10.415875 10.415875 0 0 0 9.305986-0.341504l4.268801-2.518593c2.603969-1.536768 2.902785-3.969985 0.512256-5.293313zM695.30759 858.242455l-20.276805-11.781891a10.330499 10.330499 0 0 0-9.263299 0.384192l-4.268801 2.475904c-2.732033 1.579456-3.030849 3.969985-0.683008 5.37869l20.276805 11.781891a10.330499 10.330499 0 0 0 9.263299-0.384192l4.268801-2.475905c2.774721-1.579456 3.073537-3.969985 0.683008-5.378689zM663.12083 835.831249l-20.234117-11.952643a10.415875 10.415875 0 0 0-9.305987 0.384192l-4.268801 2.475905c-2.732033 1.579456-3.030849 4.012673-0.683008 5.378689l20.276805 11.781891a10.330499 10.330499 0 0 0 9.263299-0.341504l4.268801-2.518593c2.988161-1.408704 2.988161-3.799233 0.683008-5.207937zM734.922064 877.622811l-20.234117-11.781891a10.287811 10.287811 0 0 0-9.305987 0.341505l-4.268801 2.518592c-2.732033 1.579456-3.073537 3.969985-0.683008 5.336002l20.234117 11.78189a10.287811 10.287811 0 0 0 9.305986-0.341504l4.268802-2.518592c2.774721-1.579456 3.073537-3.969985 0.683008-5.336002zM390.002937 650.053027L365.628083 636.051359a10.415875 10.415875 0 0 0-9.305986 0.341504l-31.418376 18.014341c-2.774721 1.579456-3.073537 3.969985-0.683008 5.378689l24.374854 14.172419a10.330499 10.330499 0 0 0 9.263298-0.341504l31.461064-18.01434c2.902785-1.750208 2.902785-4.140737 0.683008-5.549441zM610.529201 778.330499l-24.374854-14.215108a10.543939 10.543939 0 0 0-9.305987 0.341504l-31.418376 18.014341c-2.774721 1.579456-3.073537 4.012673-0.683008 5.378689l24.374854 14.17242a10.159747 10.159747 0 0 0 9.263299-0.341505l31.461063-18.01434c2.732033-1.536768 3.030849-3.927297 0.683009-5.336001zM432.306756 629.392029l-20.276805-11.781891a10.330499 10.330499 0 0 0-9.263298 0.341504l-21.087878 12.080708c-2.774721 1.579456-3.073537 3.969985-0.683008 5.378689l20.234117 11.781891a10.415875 10.415875 0 0 0 9.305987-0.384192l21.087877-12.080707c2.732033-1.579456 3.030849-3.969985 0.683008-5.336002zM417.067136 656.370852l20.234117 11.781891a10.287811 10.287811 0 0 0 9.305987-0.341504l21.087877-12.080707c2.732033-1.579456 3.030849-3.969985 0.683008-5.378689l-20.276805-11.781891a10.330499 10.330499 0 0 0-9.263298 0.384192L417.83552 651.034851c-2.860097 1.579456-3.158913 3.969985-0.768384 5.336001zM453.138505 677.373353l20.234117 11.781891a10.415875 10.415875 0 0 0 9.305987-0.384192l21.087877-12.080707c2.732033-1.579456 3.030849-3.969985 0.683008-5.336001l-20.276805-11.781891a10.330499 10.330499 0 0 0-9.263298 0.341504l-21.087878 12.080707c-2.774721 1.579456-3.073537 3.969985-0.683008 5.378689zM489.209874 698.333167l20.234117 11.781891a10.287811 10.287811 0 0 0 9.305987-0.341505l21.087877-12.080707c2.732033-1.579456 3.030849-3.969985 0.683008-5.378689l-20.234117-11.781891a10.330499 10.330499 0 0 0-9.263298 0.384192l-21.087878 12.080707c-2.817409 1.579456-3.116225 3.969985-0.725696 5.336002zM525.281243 719.335668l20.234117 11.781891a10.330499 10.330499 0 0 0 9.263299-0.384192l21.087877-12.080707c2.774721-1.579456 3.073537-3.969985 0.683008-5.336002l-20.234117-11.781891a10.330499 10.330499 0 0 0-9.263298 0.341504l-21.087878 12.080707c-2.774721 1.579456-3.073537 3.969985-0.683008 5.37869zM612.620913 734.233784l-20.234117-11.781891a10.415875 10.415875 0 0 0-9.305986 0.384192l-21.087878 12.080707c-2.732033 1.579456-3.030849 3.969985-0.683008 5.336001l20.276805 11.781891a10.159747 10.159747 0 0 0 9.263299-0.341504l21.087877-12.080707c2.774721-1.536768 3.073537-3.927297 0.683008-5.378689zM594.649261 759.84659l20.234117 11.781891a10.287811 10.287811 0 0 0 9.305986-0.341504l21.087877-12.080707c2.732033-1.579456 3.073537-3.969985 0.683008-5.37869l-20.276805-11.78189a10.330499 10.330499 0 0 0-9.263298 0.384192l-21.087877 12.080707c-2.774721 1.408704-3.073537 3.799233-0.683008 5.336001zM660.260733 792.118726l21.087877-12.123395c2.732033-1.536768 3.030849-3.969985 0.683008-5.336001l-20.276805-11.781891a10.330499 10.330499 0 0 0-9.263298 0.341504l-21.215941 12.080707c-2.774721 1.579456-3.073537 3.969985-0.683008 5.378689l20.234117 11.781891a10.543939 10.543939 0 0 0 9.43405-0.341504zM696.332102 813.078539l21.087877-12.080707c2.732033-1.579456 3.030849-3.969985 0.683008-5.378689l-20.276805-11.781891a10.330499 10.330499 0 0 0-9.263298 0.384192l-21.087877 12.080707c-2.774721 1.579456-3.073537 3.969985-0.683008 5.336001l20.234117 11.781891a10.287811 10.287811 0 0 0 9.305986-0.341504zM774.621914 858.626647l21.087877-12.080707c2.774721-1.579456 3.073537-3.969985 0.683008-5.336002l-62.153743-36.156745a10.159747 10.159747 0 0 0-9.263299 0.341504L703.845192 817.475404c-2.774721 1.579456-3.073537 3.969985-0.683008 5.336002l62.153743 36.199433a10.330499 10.330499 0 0 0 9.305987-0.384192zM919.206206 772.396865l-37.437386-21.770885a10.330499 10.330499 0 0 0-9.263298 0.384192l-21.087877 12.080707c-2.774721 1.579456-3.073537 3.969985-0.683008 5.336001l37.437385 21.770886a10.159747 10.159747 0 0 0 9.263298-0.341505l21.087878-12.080707c2.774721-1.579456 3.030849-3.969985 0.683008-5.378689zM462.27374 496.034684l20.917125 12.166083a10.415875 10.415875 0 0 0 9.305986-0.341504l7.555778-4.268801c2.732033-1.579456 3.030849-3.969985 0.683008-5.336001l-20.959813-12.166083a10.287811 10.287811 0 0 0-9.305986 0.341504l-7.51309 4.268801c-2.774721 1.536768-3.073537 3.927297-0.683008 5.336001zM498.942741 517.421377l20.917125 12.166083a10.415875 10.415875 0 0 0 9.305986-0.341504l7.555778-4.268801c2.732033-1.579456 3.030849-3.969985 0.683008-5.336001l-20.959813-12.208771a10.415875 10.415875 0 0 0-9.305986 0.384192l-7.51309 4.268801c-2.689345 1.536768-2.988161 3.927297-0.683008 5.336001zM535.782494 538.765383l20.917125 12.208771a10.543939 10.543939 0 0 0 9.305986-0.341504l7.51309-4.268801c2.774721-1.579456 3.073537-3.969985 0.725697-5.336002l-20.959814-12.208771a10.415875 10.415875 0 0 0-9.305986 0.384192l-7.51309 4.268801c-2.774721 1.536768-3.073537 3.927297-0.683008 5.293314zM572.536871 560.152076l20.917125 12.208771a10.415875 10.415875 0 0 0 9.305987-0.384192l7.51309-4.268801c2.774721-1.579456 3.073537-3.969985 0.725696-5.336001l-20.959814-12.208771a10.543939 10.543939 0 0 0-9.305986 0.341504l-7.51309 4.268801c-2.774721 1.622144-3.073537 4.012673-0.683008 5.378689zM609.291248 581.538769l20.917126 12.208771a10.415875 10.415875 0 0 0 9.305986-0.384192l7.51309-4.268801c2.774721-1.579456 3.073537-3.969985 0.725696-5.378689l-20.746373-12.208771a10.415875 10.415875 0 0 0-9.305987 0.341504L609.931568 576.288144c-2.732033 1.49408-3.030849 3.884609-0.64032 5.250625zM646.045625 602.925463l20.917126 12.166083a10.287811 10.287811 0 0 0 9.305986-0.341504l7.51309-4.268801c2.774721-1.579456 3.073537-3.969985 0.725696-5.37869l-20.959813-12.166083a10.415875 10.415875 0 0 0-9.305986 0.341504l-7.51309 4.268801c-2.646657 1.579456-3.073537 4.012673-0.683009 5.37869zM684.507523 625.29398l20.917125 12.208771a10.415875 10.415875 0 0 0 9.305987-0.384192l7.555778-4.268801c2.732033-1.579456 3.030849-3.969985 0.683008-5.378689l-20.959814-12.166083a10.330499 10.330499 0 0 0-9.263298 0.341504l-7.555778 4.268801c-2.689345 1.622144-3.073537 4.012673-0.683008 5.378689zM721.2619 646.680674l20.917126 12.166083a10.287811 10.287811 0 0 0 9.305986-0.341504l7.555778-4.268801c2.732033-1.579456 3.030849-3.969985 0.683008-5.37869l-20.959813-12.166083a10.330499 10.330499 0 0 0-9.263299 0.341504l-7.555778 4.268801c-2.774721 1.622144-3.073537 4.012673-0.683008 5.37869zM758.016277 668.067367l20.917126 12.166083a10.287811 10.287811 0 0 0 9.305986-0.341504l7.555778-4.268801c2.732033-1.579456 3.030849-3.969985 0.683008-5.378689l-20.959813-12.166083a10.159747 10.159747 0 0 0-9.263298 0.341504l-7.555778 4.268801c-2.774721 1.579456-3.073537 4.012673-0.683009 5.378689zM796.136671 690.265133l20.959813 12.166083a10.330499 10.330499 0 0 0 9.263299-0.341504l7.555777-4.268802c2.732033-1.579456 3.073537-3.969985 0.683009-5.336001l-20.959814-12.208771a10.330499 10.330499 0 0 0-9.263298 0.384192l-7.555778 4.268801c-2.732033 1.536768-3.073537 3.927297-0.683008 5.336002zM832.891048 711.609138l20.959813 12.208771a10.330499 10.330499 0 0 0 9.263299-0.384192l7.555778-4.268801c2.732033-1.579456 3.073537-3.969985 0.683008-5.336002l-20.959813-12.208771a10.330499 10.330499 0 0 0-9.263299 0.384193l-7.555778 4.268801c-2.732033 1.579456-3.073537 3.969985-0.683008 5.336001zM869.645425 732.995831l20.959814 12.208771a10.330499 10.330499 0 0 0 9.263298-0.384192l7.555778-4.268801c2.732033-1.579456 3.073537-3.969985 0.683008-5.336001l-20.959813-12.208771a10.330499 10.330499 0 0 0-9.263299 0.341504l-7.555777 4.268801c-2.732033 1.622144-3.073537 4.012673-0.683009 5.378689zM906.399803 754.382525l20.959813 12.208771a10.330499 10.330499 0 0 0 9.263298-0.384192l7.555778-4.268802c2.732033-1.579456 3.073537-3.969985 0.683008-5.378689l-20.959813-12.166083a10.330499 10.330499 0 0 0-9.263298 0.341504l-7.555778 4.268801c-2.603969 1.622144-3.073537 4.012673-0.683008 5.37869z" fill="#B7B7B8" p-id="5067"></path><path d="M418.347777 206.780724l-47.767884 27.320327-47.767884-27.320327 47.767884-28.344839 47.767884 28.344839zM515.036121 339.113557l-47.767884 27.363015-47.767884-27.363015 47.767884-28.302151 47.767884 28.302151zM612.108657 443.955311l-47.767884 27.363015-47.767884-27.363015 47.767884-28.302151 47.767884 28.302151zM707.943241 561.859596l-47.767884 27.363015-47.725196-27.363015 47.725196-28.344839 47.767884 28.344839zM804.247393 657.309988l-47.767884 27.363015-47.767884-27.363015 47.767884-28.302151 47.767884 28.302151z" fill="#DF7976" p-id="5068"></path><path d="M418.646593 570.909455l-48.237452 27.832583V233.46073l48.237452-27.832583v365.281308zM515.334937 627.214941l-48.237452 27.832583V365.836251l48.237452-27.832582v289.211272zM612.407473 683.904619l-48.237452 27.832583v-241.059196l48.237452-27.832583v241.059196zM708.242057 741.448057l-48.194764 27.832583v-180.698349l48.194764-27.875271v180.741037zM804.546209 795.277639l-48.237452 27.832583v-139.077539l48.237452-27.832583v139.077539z" fill="#ED796F" p-id="5069"></path><path d="M322.171689 571.592463l48.237452 27.832583V234.101051l-48.237452-27.832583v365.323995zM418.860033 627.855261l48.237452 27.832583V366.476572l-48.237452-27.832583v289.211272zM515.932569 684.587627l48.237452 27.832583v-241.101884l-48.237452-27.832583v241.101884zM611.809841 742.088378l48.237452 27.832582v-180.698349l-48.237452-27.832583v180.69835zM708.071305 795.917959l48.237452 27.832583v-139.077539l-48.237452-27.832583v139.077539z" fill="#EF948F" p-id="5070"></path><path d="M213.914893 608.1334l-93.017175-54.72603a7.982658 7.982658 0 0 0-10.970819 2.732033s-1.323328 65.398032-0.341504 86.187094c0 4.268801-1.0672 8.537602 2.732033 11.013506L179.508357 691.545773l0.811072 0.469568 6.488578 26.125063a8.025346 8.025346 0 0 0 3.671169 4.951809 8.196098 8.196098 0 0 0 5.976321 0.85376 8.196098 8.196098 0 0 0 1.323328-0.469568l0.469569-0.298816 0.85376-0.469568a2.561281 2.561281 0 0 1 0.341504-0.341504l0.85376-0.725697a7.08621 7.08621 0 0 0 0.939136-1.28064l6.915458-11.483075 2.518593 1.536769 2.049024 1.237952a8.025346 8.025346 0 0 0 11.013507-2.732033l2.177088-86.571285c-0.170752-7.000834-8.238786-11.909955-11.995331-14.215108z" fill="#8DC9E8" p-id="5071"></path><path d="M144.022455 725.769475a26.210439 46.316492 83.05 1 0 91.952327-11.208881 26.210439 46.316492 83.05 1 0-91.952327 11.208881Z" fill="#8BCA9E" opacity=".24" p-id="5072"></path><path d="M156.94663 724.194033a18.825413 33.296648 83.05 1 0 66.103977-8.057998 18.825413 33.296648 83.05 1 0-66.103977 8.057998Z" fill="#8BCA9E" opacity=".24" p-id="5073"></path><path d="M169.277564 722.690907a11.824579 20.874437 83.05 1 0 41.442109-5.051745 11.824579 20.874437 83.05 1 0-41.442109 5.051745Z" fill="#8BCA9E" opacity=".24" p-id="5074"></path><path d="M499.005894 112.475516a16.861764 9.519426 66.95 1 0 17.518858-7.454364 16.861764 9.519426 66.95 1 0-17.518858 7.454364Z" fill="#97D3D6" p-id="5075"></path><path d="M479.595333 879.827488a9.519426 16.861764 83.05 1 0 33.475732-4.080652 9.519426 16.861764 83.05 1 0-33.475732 4.080652Z" fill="#97D3D6" p-id="5076"></path><path d="M856.730865 817.23988a9.519426 16.861764 83.05 1 0 33.475732-4.080653 9.519426 16.861764 83.05 1 0-33.475732 4.080653Z" fill="#97D3D6" p-id="5077"></path></svg>